<svg width="171" height="37" viewBox="0 0 171 37" fill="none" xmlns="http://www.w3.org/2000/svg">
<path fill-rule="evenodd" clip-rule="evenodd" d="M40.6105 13.611C40.3413 14.6165 39.8196 15.3545 39.0453 15.8258C38.2702 16.2969 37.183 16.5329 35.7806 16.5329H31.3252L32.8892 10.6896H37.3446C38.7459 10.6896 39.708 10.9252 40.2307 11.3963C40.7524 11.868 40.8797 12.606 40.6105 13.611ZM45.2244 13.4851C45.791 11.3707 45.5562 9.74732 44.5202 8.61643C43.484 7.48554 41.6685 6.92041 39.0756 6.92041H29.1299L23.1439 29.2858H27.9759L30.3893 20.2704H33.5581C34.2686 20.2704 34.828 20.3857 35.237 20.6161C35.647 20.8469 35.887 21.2554 35.9611 21.841L36.823 29.2858H42.0003L41.1603 22.344C40.9892 20.7942 40.2808 19.8832 39.036 19.6111C40.623 19.1509 41.9523 18.3857 43.0228 17.3175C44.0924 16.2499 44.8269 14.9727 45.2244 13.4851Z" fill="#072654"/>
<path fill-rule="evenodd" clip-rule="evenodd" d="M56.968 21.2757C56.5643 22.7832 55.9423 23.9354 55.1024 24.7309C54.2615 25.527 53.2556 25.9245 52.0849 25.9245C50.8912 25.9245 50.0815 25.5322 49.6547 24.7466C49.2259 23.9616 49.2113 22.826 49.6099 21.3383C50.0074 19.8518 50.6418 18.6896 51.5152 17.8512C52.3874 17.0144 53.409 16.595 54.5806 16.595C55.7514 16.595 56.5444 16.9988 56.9554 17.8048C57.3666 18.6108 57.3718 19.7677 56.968 21.2757ZM59.0861 13.3597L58.4809 15.6214C58.219 14.8045 57.713 14.1557 56.9638 13.6741C56.2136 13.1925 55.284 12.9512 54.1758 12.9512C52.8162 12.9512 51.5089 13.3022 50.2547 14.0037C49.0005 14.7057 47.9039 15.6951 46.9659 16.9722C46.0279 18.2498 45.3403 19.7051 44.9031 21.3383C44.4659 22.9723 44.3782 24.4119 44.6412 25.6576C44.9041 26.9039 45.4738 27.8618 46.3513 28.532C47.2278 29.2027 48.3568 29.537 49.7372 29.537C50.8453 29.537 51.9013 29.3067 52.9029 28.8459C53.9045 28.3858 54.7549 27.7465 55.455 26.93L54.8239 29.2858H59.4982L63.7606 13.3597H59.0861Z" fill="#072654"/>
<path fill-rule="evenodd" clip-rule="evenodd" d="M80.5689 13.3599H66.9837L66.0341 16.9097H73.94L63.4872 25.956L62.5951 29.286H76.6196L77.57 25.7367H69.0998L79.7112 16.5639L80.5689 13.3599Z" fill="#072654"/>
<path fill-rule="evenodd" clip-rule="evenodd" d="M92.5294 21.2443C92.1089 22.8144 91.486 23.9881 90.6617 24.7628C89.8375 25.5374 88.8399 25.9245 87.6693 25.9245C85.2214 25.9245 84.4158 24.3653 85.2506 21.2443C85.6659 19.6945 86.2919 18.5271 87.1288 17.7421C87.9665 16.9565 88.9808 16.5637 90.1734 16.5637C91.3441 16.5637 92.134 16.9565 92.5409 17.7421C92.9478 18.5271 92.9447 19.6945 92.5294 21.2443ZM95.2642 13.9561C94.1884 13.2865 92.8143 12.9512 91.1406 12.9512C89.4461 12.9512 87.8769 13.2865 86.4318 13.9561C84.9867 14.6268 83.7564 15.5901 82.7412 16.8462C81.7249 18.103 80.9925 19.5687 80.5438 21.2443C80.0951 22.92 80.043 24.3852 80.3873 25.6419C80.7306 26.8986 81.4443 27.8618 82.5315 28.532C83.6177 29.2027 85.0075 29.537 86.7021 29.537C88.3756 29.537 89.9292 29.2027 91.364 28.532C92.7965 27.8618 94.0225 26.8986 95.0388 25.6419C96.054 24.3852 96.7865 22.92 97.2352 21.2443C97.6839 19.5687 97.7361 18.103 97.3927 16.8462C97.0484 15.5901 96.3388 14.6268 95.2642 13.9561Z" fill="#072654"/>
<path fill-rule="evenodd" clip-rule="evenodd" d="M144.156 21.2757C143.752 22.7832 143.13 23.9354 142.291 24.7309C141.451 25.527 140.443 25.9245 139.272 25.9245C138.08 25.9245 137.27 25.5322 136.843 24.7466C136.414 23.9616 136.399 22.826 136.798 21.3383C137.196 19.8518 137.83 18.6896 138.703 17.8512C139.576 17.0144 140.597 16.595 141.769 16.595C142.94 16.595 143.733 16.9988 144.144 17.8048C144.555 18.6108 144.56 19.7677 144.156 21.2757ZM146.274 13.3597L145.669 15.6214C145.407 14.8045 144.901 14.1557 144.152 13.6741C143.402 13.1925 142.472 12.9512 141.364 12.9512C140.004 12.9512 138.697 13.3022 137.443 14.0037C136.189 14.7057 135.092 15.6951 134.154 16.9722C133.216 18.2498 132.528 19.7051 132.091 21.3383C131.654 22.9723 131.567 24.4119 131.829 25.6576C132.092 26.9039 132.661 27.8618 133.539 28.532C134.416 29.2027 135.545 29.537 136.925 29.537C138.033 29.537 139.089 29.3067 140.091 28.8459C141.093 28.3858 141.943 27.7465 142.643 26.93L142.012 29.2858H146.686L150.949 13.3597H146.274Z" fill="#072654"/>
<path fill-rule="evenodd" clip-rule="evenodd" d="M111.931 17.6322L113.122 13.2973C112.717 13.0878 112.181 12.9829 111.512 12.9829C110.445 12.9829 109.417 13.2498 108.427 13.7841C107.576 14.2425 106.852 14.886 106.241 15.6922L106.861 13.3578L105.507 13.36H102.188L97.8926 29.286H102.632L104.859 20.9621C105.184 19.7477 105.766 18.8001 106.608 18.1195C107.448 17.439 108.497 17.0984 109.752 17.0984C110.526 17.0984 111.251 17.2765 111.931 17.6322Z" fill="#072654"/>
<path fill-rule="evenodd" clip-rule="evenodd" d="M125.122 21.3383C124.723 22.8259 124.106 23.9615 123.269 24.7466C122.43 25.5321 121.426 25.9244 120.255 25.9244C119.084 25.9244 118.285 25.5269 117.861 24.7309C117.435 23.9354 117.425 22.7836 117.828 21.2756C118.232 19.7676 118.86 18.6106 119.714 17.8047C120.567 16.9987 121.58 16.5949 122.752 16.5949C123.902 16.5949 124.684 17.0144 125.098 17.8517C125.511 18.6895 125.519 19.8522 125.122 21.3383ZM128.434 14.0036C127.554 13.3021 126.434 12.9517 125.076 12.9517C123.883 12.9517 122.748 13.2238 121.673 13.7681C120.596 14.3134 119.722 15.0556 119.052 15.9984L119.067 15.8939L119.864 13.3573H118.947V13.3596H115.238L114.06 17.7636C114.046 17.8148 114.035 17.8626 114.021 17.9143L109.162 36.0709H113.9L116.347 26.9305C116.587 27.7463 117.085 28.3856 117.841 28.8459C118.596 29.3065 119.528 29.5369 120.637 29.5369C122.018 29.5369 123.33 29.2026 124.577 28.5319C125.823 27.8622 126.906 26.9038 127.824 25.6575C128.743 24.4123 129.422 22.9721 129.859 21.3383C130.296 19.7049 130.387 18.2497 130.133 16.9721C129.88 15.6949 129.312 14.7056 128.434 14.0036Z" fill="#072654"/>
<path fill-rule="evenodd" clip-rule="evenodd" d="M170.569 13.3643L170.572 13.3599H167.702C167.61 13.3599 167.53 13.3625 167.446 13.3643H165.956L165.194 14.4268C165.133 14.5068 165.072 14.5874 165.007 14.6808L164.924 14.8039L158.87 23.2446L157.615 13.3599H152.657L155.168 28.3802L149.623 36.0711H149.781H152.612H154.563L155.906 34.1652C155.946 34.1084 155.98 34.0619 156.022 34.0019L157.591 31.7759L157.635 31.7122L164.652 21.7531L170.564 13.3709L170.572 13.3643H170.569Z" fill="#072654"/>
<path fill-rule="evenodd" clip-rule="evenodd" d="M10.9671 9.48264L9.54874 14.7088L17.6648 9.45326L12.3572 29.2809L17.7471 29.2859L25.5879 0L10.9671 9.48264Z" fill="#3395FF"/>
<path fill-rule="evenodd" clip-rule="evenodd" d="M2.2314 20.9506L0 29.2858H11.0481C11.0481 29.2858 15.5671 12.3335 15.5684 12.3286C15.5641 12.3313 2.2314 20.9506 2.2314 20.9506Z" fill="#072654"/>
</svg>
