<svg width="800" height="800" viewBox="0 0 800 800" fill="none" xmlns="http://www.w3.org/2000/svg">
<path d="M409.5 76.5H410.913L409.814 75.6113C408.023 74.1621 404.994 73.8054 401.274 74.1843C397.519 74.5668 392.921 75.7142 387.858 77.4366C377.728 80.8828 365.655 86.6577 354.584 93.3452C343.518 100.029 333.412 107.649 327.241 114.798C324.158 118.37 322.022 121.864 321.269 125.1C320.509 128.37 321.167 131.374 323.646 133.854C326.083 136.29 330.696 138.441 336.793 140.414C342.915 142.394 350.617 144.218 359.314 145.959C372.212 148.541 387.333 150.946 402.777 153.402C403.087 153.451 403.398 153.501 403.709 153.55C402.443 154.29 401.176 155.03 399.911 155.769L399.079 156.255C374.965 170.346 351.241 184.209 333.243 193.404C324.135 198.057 316.522 201.501 311.078 203.178C308.347 204.019 306.215 204.398 304.731 204.293C303.993 204.241 303.458 204.072 303.091 203.819C302.739 203.575 302.509 203.232 302.412 202.745C302.29 202.131 302.171 201.633 302.055 201.251C301.944 200.886 301.819 200.57 301.663 200.363C301.587 200.263 301.448 200.113 301.231 200.064C300.972 200.006 300.763 200.12 300.639 200.239C300.526 200.347 300.452 200.484 300.401 200.6C300.346 200.724 300.299 200.868 300.256 201.023C300.091 201.636 299.957 202.622 299.848 203.888C299.738 205.164 299.651 206.756 299.587 208.598C299.328 215.966 299.425 227.408 299.879 238.88C300.332 250.347 301.144 261.871 302.319 269.392C302.613 271.274 302.931 272.913 303.274 274.244C303.614 275.562 303.989 276.618 304.413 277.304C304.624 277.644 304.876 277.941 305.186 278.114C305.525 278.303 305.902 278.323 306.265 278.154C306.595 278.001 306.877 277.708 307.125 277.348C307.377 276.982 307.623 276.502 307.867 275.913C308.278 274.922 309.2 274.038 310.675 273.275C312.148 272.513 314.123 271.897 316.552 271.416C321.409 270.456 327.982 270.057 335.745 270.058C351.266 270.06 371.434 271.659 391.903 273.488C396.157 273.868 400.424 274.258 404.665 274.645C415.44 275.63 426.045 276.6 435.83 277.351C435.846 277.581 435.935 277.797 436.076 277.989C436.288 278.277 436.62 278.516 437.002 278.72C437.772 279.132 438.931 279.501 440.377 279.837C441.832 280.175 443.614 280.488 445.652 280.777C453.8 281.932 466.159 282.718 478.465 283.146C490.774 283.574 503.053 283.645 511.048 283.367C515.026 283.229 517.996 283.003 519.367 282.678C519.696 282.6 520.016 282.499 520.226 282.344C520.332 282.265 520.498 282.107 520.523 281.853C520.549 281.586 520.403 281.396 520.296 281.295C520.099 281.11 519.774 280.978 519.429 280.869C519.056 280.751 518.563 280.632 517.949 280.51C516.913 280.304 515.96 279.576 515.092 278.27C514.222 276.962 513.469 275.121 512.828 272.792C511.548 268.136 510.745 261.649 510.282 253.887C509.356 238.372 509.79 217.888 510.396 197.062C510.487 193.912 510.583 190.753 510.678 187.603C511.211 169.943 511.737 152.547 511.524 138.272C511.398 129.862 511.016 122.517 510.224 116.829C509.828 113.986 509.328 111.542 508.701 109.581C508.077 107.63 507.312 106.105 506.354 105.146C505.314 104.107 503.567 103.816 501.403 104.003C499.21 104.193 496.447 104.886 493.212 105.99C486.739 108.2 478.276 112.097 468.527 117.093C457.087 122.955 443.85 130.345 429.936 138.33C424.341 126.229 419.307 114.988 415.439 105.473C411.809 96.5427 409.219 89.1635 408.15 84.0291C407.613 81.4506 407.474 79.5026 407.738 78.2233C407.869 77.5902 408.089 77.1663 408.364 76.9026C408.629 76.6487 408.989 76.5 409.5 76.5ZM405.072 152.755C404.353 152.64 403.634 152.526 402.916 152.412C387.478 149.956 372.387 147.556 359.51 144.978C350.827 143.24 343.168 141.425 337.101 139.462C331.009 137.492 326.605 135.398 324.354 133.146C322.145 130.938 321.552 128.299 322.243 125.327C322.942 122.32 324.96 118.972 327.998 115.452C334.069 108.418 344.072 100.863 355.101 94.2012C366.123 87.5433 378.13 81.8021 388.18 78.3833C393.207 76.6733 397.725 75.551 401.375 75.1792C404.351 74.8761 406.662 75.0816 408.21 75.7933C408.015 75.8952 407.835 76.0241 407.672 76.1809C407.201 76.632 406.914 77.2693 406.759 78.0212C406.451 79.5119 406.629 81.6294 407.171 84.233C408.26 89.463 410.881 96.9143 414.513 105.85C418.396 115.403 423.451 126.688 429.066 138.83C421.208 143.344 413.143 148.041 405.072 152.755ZM400.416 156.633C402.032 155.688 403.65 154.743 405.267 153.798C409.826 154.524 414.404 155.255 418.952 155.997C425.641 157.089 432.266 158.205 438.676 159.365C440.131 162.451 441.6 165.56 443.074 168.678C443.589 169.769 444.105 170.861 444.622 171.954C456.093 196.236 467.66 220.843 475.332 240.065C476.105 242.001 476.838 243.882 477.527 245.702C467.094 258.671 453.541 268.854 438.077 275.259C437.488 275.504 437.011 275.751 436.654 276.007C436.494 276.121 436.347 276.244 436.223 276.378C426.363 275.625 415.658 274.646 404.767 273.651C400.524 273.263 396.252 272.872 391.992 272.492C371.528 270.663 351.317 269.06 335.745 269.058C327.963 269.057 321.312 269.456 316.358 270.435C313.882 270.925 311.805 271.564 310.216 272.387C308.629 273.208 307.479 274.237 306.943 275.53C306.714 276.083 306.499 276.493 306.301 276.781C306.098 277.076 305.94 277.202 305.843 277.248C305.778 277.278 305.738 277.277 305.672 277.24C305.577 277.187 305.435 277.054 305.263 276.777C304.922 276.226 304.577 275.292 304.242 273.994C303.91 272.707 303.598 271.102 303.307 269.238C302.141 261.776 301.331 250.301 300.878 238.84C300.425 227.383 300.328 215.967 300.586 208.633C300.65 206.8 300.737 205.227 300.844 203.973C300.93 202.977 301.028 202.203 301.134 201.665C301.227 201.99 301.326 202.412 301.431 202.94C301.576 203.665 301.943 204.241 302.523 204.641C303.088 205.032 303.819 205.232 304.661 205.291C306.336 205.409 308.614 204.983 311.372 204.133C316.905 202.429 324.584 198.951 333.698 194.295C351.721 185.086 375.465 171.212 399.563 157.131L400.416 156.633ZM437.473 277.839C437.18 277.682 437.005 277.542 436.911 277.433C441.404 277.772 445.717 278.064 449.787 278.287C458.12 278.743 465.446 278.915 471.21 278.626C474.091 278.482 476.594 278.222 478.642 277.822C480.681 277.424 482.315 276.879 483.425 276.137C484.655 275.315 485.206 273.726 485.312 271.694C485.419 269.641 485.081 266.999 484.381 263.875C483.29 259.007 481.304 252.894 478.664 245.882C480.384 243.718 482.019 241.479 483.563 239.168C494.606 222.641 500.5 203.21 500.5 183.333C500.5 179.746 497.843 176.644 493.471 173.922C489.077 171.187 482.811 168.745 475.279 166.516C465.177 163.526 452.738 160.902 439.361 158.472C436.27 151.919 433.242 145.469 430.358 139.241C444.29 131.244 457.54 123.847 468.983 117.983C478.722 112.992 487.133 109.122 493.536 106.936C496.74 105.842 499.415 105.179 501.489 105C503.591 104.818 504.938 105.145 505.646 105.854C506.436 106.644 507.142 107.988 507.748 109.886C508.352 111.772 508.842 114.154 509.234 116.967C510.017 122.593 510.399 129.89 510.524 138.287C510.737 152.537 510.212 169.905 509.678 187.567C509.583 190.718 509.488 193.879 509.396 197.033C508.791 217.851 508.354 238.379 509.284 253.947C509.748 261.727 510.555 268.298 511.864 273.057C512.519 275.436 513.306 277.391 514.259 278.824C515.213 280.258 516.365 281.214 517.754 281.49C518.224 281.584 518.604 281.673 518.902 281.756C517.545 282.029 514.783 282.237 511.013 282.368C503.05 282.644 490.795 282.574 478.499 282.146C466.201 281.718 453.885 280.934 445.793 279.787C443.771 279.5 442.02 279.192 440.603 278.863C439.176 278.531 438.123 278.186 437.473 277.839ZM438.46 276.183C453.897 269.789 467.448 259.668 477.935 246.787C480.463 253.543 482.357 259.414 483.405 264.094C484.097 267.183 484.413 269.722 484.314 271.642C484.212 273.581 483.695 274.754 482.869 275.306C481.924 275.937 480.445 276.451 478.451 276.841C476.466 277.228 474.016 277.484 471.16 277.627C465.448 277.913 458.164 277.744 449.842 277.288C446.019 277.079 441.98 276.809 437.779 276.495C437.974 276.395 438.2 276.291 438.46 276.183ZM443.985 168.265C442.612 165.359 441.243 162.463 439.885 159.584C452.975 161.974 465.115 164.551 474.996 167.475C482.499 169.696 488.664 172.107 492.943 174.771C497.243 177.448 499.5 180.29 499.5 183.333C499.5 203.013 493.665 222.25 482.731 238.613C481.314 240.734 479.819 242.795 478.251 244.791C477.621 243.139 476.957 241.438 476.261 239.694C468.575 220.438 456.994 195.801 445.526 171.527C445.012 170.438 444.498 169.351 443.985 168.265ZM419.113 155.01C414.962 154.333 410.789 153.665 406.63 153.003C414.324 148.511 422 144.042 429.487 139.741C432.268 145.744 435.18 151.95 438.152 158.254C431.951 157.138 425.558 156.062 419.113 155.01ZM400 349.5C367.136 349.5 335.009 339.754 307.683 321.496C280.357 303.237 259.059 277.286 246.482 246.923C233.905 216.56 230.615 183.149 237.026 150.916C243.438 118.683 259.264 89.0746 282.503 65.8358C305.741 42.597 335.35 26.7711 367.583 20.3595C399.816 13.948 433.226 17.2386 463.589 29.8154C493.952 42.3921 519.904 63.6901 538.163 91.0161C556.421 118.342 566.167 150.469 566.167 183.333C566.167 227.404 548.66 269.669 517.498 300.831C486.335 331.993 444.07 349.5 400 349.5Z" fill="#575757" stroke="#575757"/>
<path d="M133.181 716.191L133.298 717.165L608.053 750.499L608.588 750.536V750C608.588 697.089 629.607 646.346 667.02 608.932C668.247 607.705 669.024 606.37 669.348 604.934C669.671 603.497 669.534 601.997 668.993 600.452C667.919 597.381 665.234 594.087 661.266 590.62C653.316 583.674 639.992 575.844 623.169 567.529C589.507 550.891 541.673 532.233 494.347 514.755C471.502 506.318 448.782 498.158 427.823 490.631C405.345 482.559 384.894 475.214 368.49 469.036C352.637 463.065 340.607 458.2 334.198 454.833C332.596 453.992 331.364 453.253 330.515 452.622C330.361 452.508 330.221 452.398 330.095 452.293L333.568 450.441L333.333 449.5C331.666 449.5 330.412 449.617 329.583 449.87C329.171 449.996 328.808 450.171 328.559 450.432C328.286 450.719 328.179 451.082 328.257 451.468C328.296 451.658 328.376 451.842 328.485 452.018L255.265 491.059L255.5 492C262.09 492 265.496 493.673 266.806 496.408C267.471 497.795 267.637 499.526 267.335 501.595C267.034 503.664 266.27 506.038 265.114 508.681C260.926 518.259 251.746 531.059 241.676 545.098C240.599 546.6 239.512 548.116 238.419 549.644C227.14 565.417 215.337 582.413 208.708 597.823C202.091 613.202 200.532 627.239 210.146 636.854C219.761 646.468 234.33 644.939 250.496 638.374C266.7 631.794 284.757 620.057 301.592 608.84C302.975 607.919 304.349 607.001 305.714 606.09C320.994 595.888 335.012 586.529 345.477 582.314C348.32 581.169 350.879 580.413 353.113 580.12C355.349 579.826 357.228 580 358.738 580.677C361.704 582.009 363.5 585.428 363.5 592V592.5H364H519.3L133.181 716.191ZM267.708 495.976C266.288 493.012 262.934 491.351 257.407 491.05L329.152 452.796C329.372 453 329.629 453.21 329.919 453.425C330.828 454.101 332.114 454.868 333.733 455.718C340.206 459.119 352.296 464.005 368.137 469.971C384.538 476.148 405.007 483.5 427.497 491.577C448.46 499.106 471.18 507.265 494.001 515.693C541.327 533.171 589.116 551.814 622.726 568.426C639.539 576.736 652.762 584.518 660.608 591.373C664.536 594.805 667.061 597.959 668.049 600.782C668.54 602.184 668.647 603.492 668.372 604.714C668.097 605.935 667.43 607.108 666.313 608.225C628.838 645.7 607.73 696.481 607.589 749.464L135.961 716.35L522.653 592.476L522.5 591.5H364.497C364.407 585.113 362.583 581.307 359.147 579.765C357.412 578.986 355.33 578.82 352.983 579.128C350.635 579.436 347.99 580.223 345.103 581.386C334.536 585.642 320.43 595.061 305.192 605.236C303.816 606.155 302.431 607.08 301.038 608.008C284.187 619.235 266.213 630.912 250.12 637.448C233.988 643.999 219.993 645.286 210.854 636.146C201.715 627.007 203.033 613.543 209.626 598.218C216.206 582.924 227.943 566.014 239.233 550.226C240.329 548.692 241.422 547.169 242.505 545.659C252.55 531.655 261.797 518.763 266.03 509.082C267.206 506.394 268.006 503.929 268.325 501.739C268.644 499.55 268.487 497.601 267.708 495.976ZM700 782.833H99.9998C91.2919 782.833 82.9406 779.374 76.7832 773.217C70.6257 767.059 67.1665 758.708 67.1665 750V650C67.1665 579.408 95.209 511.708 145.125 461.792C195.041 411.876 262.741 383.833 333.333 383.833H466.667C537.258 383.833 604.959 411.876 654.875 461.792C704.791 511.708 732.833 579.408 732.833 650V750C732.833 758.708 729.374 767.059 723.216 773.217C717.059 779.374 708.708 782.833 700 782.833Z" fill="#575757" stroke="#575757"/>
</svg>
