<svg width="800" height="800" viewBox="0 0 800 800" fill="none" xmlns="http://www.w3.org/2000/svg">
<path d="M500 400H66.6665M66.6665 400L183.333 300M66.6665 400L183.333 500" stroke="#575757" stroke-width="50" stroke-linecap="round" stroke-linejoin="round"/>
<path d="M300.065 233.333C300.469 160.832 303.684 121.569 329.296 95.9561C358.587 66.6667 405.727 66.6667 500.007 66.6667H533.34C627.62 66.6667 674.763 66.6667 704.05 95.9561C733.34 125.245 733.34 172.386 733.34 266.667V533.333C733.34 627.613 733.34 674.753 704.05 704.043C678.437 729.657 602.507 732.873 530 733.277M300.065 566.667C300.469 639.167 303.684 678.43 329.296 704.043C350.673 725.42 420.723 731.717 472.5 733.277" stroke="#575757" stroke-width="50" stroke-linecap="round"/>
<path d="M448 724C448 715.163 455.163 708 464 708H569C577.837 708 585 715.163 585 724V742C585 750.837 577.837 758 569 758H464C455.163 758 448 750.837 448 742V724Z" fill="#575757"/>
</svg>
