<svg width="800" height="800" viewBox="0 0 800 800" fill="none" xmlns="http://www.w3.org/2000/svg">
<g clip-path="url(#clip0_383_175)">
<mask id="mask0_383_175" style="mask-type:luminance" maskUnits="userSpaceOnUse" x="0" y="0" width="800" height="800">
<path d="M800 0H0V800H800V0Z" fill="white"/>
</mask>
<g mask="url(#mask0_383_175)">
<path d="M400 736.999L400.025 737.001C417.967 737.903 435.59 732.019 449.391 720.519C463.19 709.02 472.155 692.748 474.504 674.94L400 736.999ZM400 736.999L399.975 737.001L400 736.999ZM400 736.999L399.975 737.001L400 736.999ZM399.975 737.001C382.034 737.903 364.41 732.019 350.609 720.519C336.809 709.018 327.843 692.745 325.496 674.935L324.501 675.037M399.975 737.001L324.501 675.037L399.975 737.001ZM324.501 675.037L324.504 675.065L330.02 750.037L330.058 750.544L330.564 750.498L467.209 737.998L467.61 737.961L467.66 737.562L475.496 675.065V675.062L474.504 674.935M324.501 675.037L474.504 674.935L324.501 675.037ZM474.504 674.935C474.504 674.936 474.504 674.937 474.504 674.938V674.935ZM537.631 185.518L463.402 165.296C452.743 160.863 441.592 157.835 430.227 156.259L350.421 134.518L350.165 134.448L349.963 134.621L262.174 210.121L262.048 210.23L262.012 210.392L173.512 612.393L174.426 612.763L241.426 504.263L241.432 504.251L250.432 488.751L250.5 488.635V488.5V316.5V316.498C250.38 279.153 260.745 242.524 280.415 210.779C293.974 192.202 312.103 177.443 333.043 167.932C353.99 158.419 377.039 154.48 399.956 156.498L400 156.502L400.044 156.498C410.075 155.615 420.132 155.873 430.027 157.24L463.077 166.244C464.378 166.786 465.671 167.348 466.957 167.932C487.898 177.443 506.026 192.202 519.585 210.779C539.255 242.524 549.62 279.153 549.5 316.498V316.5V488.5V488.635L549.568 488.751L558.568 504.251L558.575 504.263L625.104 612H400V613H626V612.593L626.49 612.398L537.99 185.898L537.927 185.598L537.631 185.518ZM350.414 135.552L423.692 155.515C415.84 154.815 407.912 154.804 400 155.498C376.926 153.474 353.72 157.443 332.63 167.022C311.526 176.606 293.258 191.482 279.596 210.205L279.585 210.221L279.575 210.237C259.8 242.144 249.38 278.963 249.5 316.502V488.365L240.575 503.737L240.568 503.749L175.121 609.733L262.953 210.77L350.414 135.552ZM520.404 210.205C507.185 192.088 489.652 177.574 469.411 167.969L537.073 186.402L624.934 609.821L559.432 503.749L559.426 503.737L550.5 488.365V316.502C550.621 278.963 540.2 242.144 520.425 210.237L520.415 210.221L520.404 210.205ZM612 471V471.141L612.073 471.26L678.573 580.26C684.279 589.633 687.396 600.353 687.604 611.324C687.813 622.295 685.105 633.125 679.759 642.708C674.413 652.291 666.619 660.283 657.174 665.868C647.729 671.454 636.97 674.433 625.997 674.5H537.5H537.032L537.001 674.967C534.697 709.407 519.142 741.617 493.601 764.836C468.06 788.055 434.518 800.479 400.014 799.5H400H399.986C365.482 800.479 331.94 788.055 306.399 764.836C280.858 741.617 265.303 709.407 262.999 674.967L262.968 674.5H262.5H174.003C163.03 674.433 152.272 671.454 142.826 665.868C133.381 660.283 125.587 652.291 120.241 642.708C114.895 633.125 112.188 622.295 112.396 611.324C112.604 600.353 115.721 589.633 121.427 580.26L187.927 471.26L188 471.141V471V316.5V316.486L187.999 316.471C185.64 275.486 194.928 234.669 214.79 198.74C234.653 162.811 264.278 133.238 300.241 113.438L300.536 113.276L300.497 112.942C299.765 106.669 299.765 100.331 300.497 94.0579L300.499 94.0366L300.5 94.0152C300.886 81.3407 303.766 68.8666 308.976 57.3059C314.185 45.7451 321.622 35.3245 330.861 26.6396C340.101 17.9547 350.961 11.1759 362.821 6.69063C374.682 2.20539 387.31 0.101659 399.984 0.499708L400 0.500201L400.016 0.499708C412.69 0.101659 425.318 2.20539 437.179 6.69063C449.039 11.1759 459.9 17.9547 469.139 26.6396C478.378 35.3245 485.815 45.7451 491.025 57.3059C496.234 68.8666 499.114 81.3407 499.5 94.0152L499.501 94.027L499.502 94.0387C499.991 100.337 499.991 106.663 499.502 112.961L499.477 113.283L499.759 113.438C535.722 133.238 565.348 162.811 585.21 198.74C605.072 234.669 614.36 275.486 612.001 316.471L612 316.486V316.5V471ZM362.002 93.9514L362.994 94.079C363.255 92.4446 363.517 90.8798 363.779 89.3823C365.38 82.6792 368.961 76.5804 374.091 71.9035C374.784 72.5886 375.536 73.3168 376.351 74.0895C380.493 78.0184 386.259 83.1148 393.949 89.5943C394.27 90.0636 394.592 90.5071 394.915 90.9208C396.488 92.939 398.172 94.3845 399.968 94.499L401.503 94.5967L400.319 93.6151C398.341 91.9739 396.468 90.409 394.697 88.9176C393.491 87.1408 392.275 84.9699 391.049 82.6062C390.062 80.7025 389.069 78.6719 388.071 76.6336C387.626 75.7225 387.179 74.8099 386.732 73.9064C387.524 74.2751 388.346 74.6703 389.193 75.0897C396.539 78.7241 405.782 84.1329 415.109 89.7578C418.498 91.8019 421.899 93.8748 425.221 95.9003C431.033 99.4429 436.607 102.84 441.464 105.684C445.282 107.92 448.669 109.819 451.39 111.183C452.751 111.865 453.952 112.417 454.963 112.81C455.963 113.199 456.815 113.449 457.462 113.499L457.5 113.501L457.538 113.499C458.234 113.445 458.792 113.145 459.031 112.524C459.243 111.972 459.148 111.288 458.92 110.583C458.457 109.148 457.3 107.201 455.724 104.964C452.555 100.471 447.555 94.6212 442.505 88.9957C438.973 85.061 435.409 81.2269 432.417 78.0311C430.525 75.1247 428.202 72.4862 425.499 70.2158C425.278 70.0301 425.102 69.8888 424.972 69.7952C424.91 69.7502 424.843 69.705 424.78 69.6714C424.774 69.6678 424.766 69.6637 424.757 69.6593C424.727 69.6444 424.684 69.6258 424.634 69.6127L424.632 69.6122C424.6 69.6036 424.38 69.5443 424.177 69.7028C423.933 69.8938 423.983 70.1699 423.992 70.2147C424.008 70.2924 424.038 70.3532 424.053 70.3811C424.086 70.4454 424.131 70.5106 424.172 70.5663C424.259 70.6842 424.388 70.8409 424.549 71.0276C425.194 71.7767 426.485 73.1647 428.189 74.9835C428.605 75.4274 429.046 75.8976 429.509 76.3911C430.173 77.0988 430.882 77.8545 431.627 78.6499C434.485 83.0655 436.32 88.1132 436.936 93.4221C436.259 93.2959 435.362 93.0292 434.258 92.6268C432.805 92.0968 431.038 91.3482 429.025 90.429C424.999 88.5909 420.019 86.0835 414.649 83.3117C411.676 81.7771 408.583 80.1614 405.469 78.5346C397.676 74.4627 389.749 70.321 383.226 67.2066C382.685 66.2618 382.145 65.3707 381.606 64.5517C380.034 62.1642 378.401 60.2813 376.697 59.4981C375.825 59.0973 374.92 58.9777 374.005 59.2392C373.1 59.4979 372.242 60.1139 371.421 61.0801C371.152 61.3975 370.883 61.756 370.617 62.1572C370.26 62.0839 369.931 62.0335 369.632 62.0091C369.149 61.9696 368.698 61.9936 368.334 62.1379C367.937 62.2947 367.644 62.597 367.559 63.0435C367.483 63.4435 367.589 63.8895 367.784 64.345C367.973 64.7836 368.272 65.2943 368.685 65.8806C368.003 67.4978 367.328 69.434 366.658 71.7191C365.365 76.1222 364.079 81.8591 362.799 89.18C362.427 90.7419 362.16 92.3356 362.002 93.9514ZM373.382 71.1964C369.839 74.4353 367.016 78.3343 365.049 82.638C365.904 78.4385 366.761 74.9186 367.617 72.0007C368.209 69.9847 368.798 68.2641 369.384 66.81C369.699 67.2064 370.054 67.6306 370.451 68.0833C371.247 68.9915 372.22 70.0262 373.382 71.1964ZM377.039 73.3639C376.247 72.6124 375.515 71.9047 374.841 71.2392C374.942 71.1527 375.043 71.0669 375.145 70.9815C375.445 70.729 375.968 70.5727 376.792 70.5966C377.606 70.6201 378.638 70.8172 379.872 71.1809C381.416 71.6359 383.239 72.3404 385.289 73.2497C385.903 74.4775 386.517 75.734 387.133 76.9933C388.138 79.0477 389.147 81.1096 390.162 83.0665C390.839 84.3734 391.519 85.6328 392.202 86.8069C385.704 81.2869 380.723 76.8578 377.039 73.3639ZM389.637 74.1935C388.376 73.5698 387.168 72.9966 386.022 72.4821C385.372 71.1865 384.72 69.9221 384.068 68.7215C390.316 71.7458 397.701 75.6041 404.987 79.4107C408.105 81.0398 411.205 82.6595 414.19 84.2003C419.562 86.9729 424.56 89.4898 428.609 91.3387C430.634 92.263 432.427 93.0236 433.916 93.5663C435.391 94.104 436.611 94.4452 437.469 94.499L438.055 94.5357L437.998 93.9514C437.581 89.6786 436.398 85.5599 434.543 81.7759C436.829 84.2358 439.303 86.9253 441.761 89.6637C446.809 95.2873 451.775 101.099 454.906 105.541C456.48 107.772 457.556 109.612 457.969 110.89C458.179 111.541 458.182 111.945 458.098 112.165C458.042 112.31 457.915 112.459 457.5 112.498C457.006 112.453 456.281 112.25 455.326 111.878C454.355 111.501 453.184 110.964 451.838 110.289C449.146 108.94 445.782 107.053 441.969 104.821C437.119 101.981 431.56 98.5929 425.755 95.0543C422.43 93.0276 419.025 90.9518 415.625 88.9015C406.3 83.2771 397.024 77.8484 389.637 74.1935ZM380.771 65.1018C381.054 65.5316 381.337 65.981 381.62 66.4477C377.534 64.5374 374.065 63.0853 371.654 62.412C371.831 62.1623 372.008 61.9344 372.183 61.7274C372.922 60.8579 373.623 60.3885 374.28 60.2007C374.928 60.0156 375.586 60.0882 376.279 60.4067C377.705 61.0621 379.206 62.7265 380.771 65.1018ZM369.551 63.0058C369.705 63.0184 369.873 63.0396 370.054 63.0696C369.756 63.5897 369.459 64.1655 369.164 64.7993C368.96 64.477 368.808 64.1949 368.703 63.9506C368.538 63.5647 368.521 63.341 368.542 63.2303C368.554 63.1661 368.578 63.1166 368.701 63.0678C368.856 63.0065 369.127 62.9712 369.551 63.0058ZM371.203 67.424C370.655 66.799 370.2 66.2432 369.83 65.7524C370.249 64.8023 370.667 63.9862 371.082 63.2933C371.086 63.2943 371.089 63.2952 371.093 63.2961C373.557 63.9393 377.367 65.5416 381.978 67.7213C382.156 67.8049 382.334 67.8894 382.513 67.9747C383.203 69.194 383.893 70.4994 384.584 71.8537C382.948 71.16 381.461 70.6066 380.155 70.2217C378.881 69.8464 377.756 69.624 376.821 69.597C375.896 69.5703 375.077 69.7323 374.501 70.2158C374.377 70.3202 374.254 70.4253 374.131 70.5312C372.963 69.3565 371.992 68.3241 371.203 67.424ZM450.031 721.287C461.033 712.119 469.004 699.959 473.066 686.403L466.717 737.039L330.98 749.456L326.126 683.487C329.877 698.213 338.185 711.466 349.969 721.287C363.956 732.943 381.816 738.909 400 738.001C418.184 738.909 436.044 732.943 450.031 721.287Z" fill="#575757"/>
<path d="M400 736.999L400.025 737.001C417.967 737.903 435.59 732.019 449.391 720.519C463.19 709.02 472.155 692.748 474.504 674.94L400 736.999ZM400 736.999L399.975 737.001M399.975 737.001C382.034 737.903 364.41 732.019 350.609 720.519C336.809 709.018 327.843 692.745 325.496 674.935L324.501 675.037M399.975 737.001L324.501 675.037M324.501 675.037L324.504 675.065L330.02 750.037L330.058 750.544L330.564 750.498L467.209 737.998L467.61 737.961L467.66 737.562L475.496 675.065V675.062L474.504 674.935M324.501 675.037L474.504 674.935M474.504 674.935C474.504 674.936 474.504 674.937 474.504 674.938V674.935ZM537.631 185.518L463.402 165.296C452.743 160.863 441.592 157.835 430.227 156.259L350.421 134.518L350.165 134.448L349.963 134.621L262.174 210.121L262.048 210.23L262.012 210.392L173.512 612.393L174.426 612.763L241.426 504.263L241.432 504.251L250.432 488.751L250.5 488.635V488.5V316.5V316.498C250.38 279.153 260.745 242.524 280.415 210.779C293.974 192.202 312.103 177.443 333.043 167.932C353.99 158.419 377.039 154.48 399.956 156.498L400 156.502L400.044 156.498C410.075 155.615 420.132 155.873 430.027 157.24L463.077 166.244C464.378 166.786 465.671 167.348 466.957 167.932C487.898 177.443 506.026 192.202 519.585 210.779C539.255 242.524 549.62 279.153 549.5 316.498V316.5V488.5V488.635L549.568 488.751L558.568 504.251L558.575 504.263L625.104 612H400V613H626V612.593L626.49 612.398L537.99 185.898L537.927 185.598L537.631 185.518ZM350.414 135.552L423.692 155.515C415.84 154.815 407.912 154.804 400 155.498C376.926 153.474 353.72 157.443 332.63 167.022C311.526 176.606 293.258 191.482 279.596 210.205L279.585 210.221L279.575 210.237C259.8 242.144 249.38 278.963 249.5 316.502V488.365L240.575 503.737L240.568 503.749L175.121 609.733L262.953 210.77L350.414 135.552ZM520.404 210.205C507.185 192.088 489.652 177.574 469.411 167.969L537.073 186.402L624.934 609.821L559.432 503.749L559.426 503.737L550.5 488.365V316.502C550.621 278.963 540.2 242.144 520.425 210.237L520.415 210.221L520.404 210.205ZM612 471V471.141L612.073 471.26L678.573 580.26C684.279 589.633 687.396 600.353 687.604 611.324C687.813 622.295 685.105 633.125 679.759 642.708C674.413 652.291 666.619 660.283 657.174 665.868C647.729 671.454 636.97 674.433 625.997 674.5H537.5H537.032L537.001 674.967C534.697 709.407 519.142 741.617 493.601 764.836C468.06 788.055 434.518 800.479 400.014 799.5H400H399.986C365.482 800.479 331.94 788.055 306.399 764.836C280.858 741.617 265.303 709.407 262.999 674.967L262.968 674.5H262.5H174.003C163.03 674.433 152.272 671.454 142.826 665.868C133.381 660.283 125.587 652.291 120.241 642.708C114.895 633.125 112.188 622.295 112.396 611.324C112.604 600.353 115.721 589.633 121.427 580.26L187.927 471.26L188 471.141V471V316.5V316.486L187.999 316.471C185.64 275.486 194.928 234.669 214.79 198.74C234.653 162.811 264.278 133.238 300.241 113.438L300.536 113.276L300.497 112.942C299.765 106.669 299.765 100.331 300.497 94.0579L300.499 94.0366L300.5 94.0152C300.886 81.3407 303.766 68.8666 308.976 57.3059C314.185 45.7451 321.622 35.3245 330.861 26.6396C340.101 17.9547 350.961 11.1759 362.821 6.69063C374.682 2.20539 387.31 0.101659 399.984 0.499708L400 0.500201L400.016 0.499708C412.69 0.101659 425.318 2.20539 437.179 6.69063C449.039 11.1759 459.9 17.9547 469.139 26.6396C478.378 35.3245 485.815 45.7451 491.025 57.3059C496.234 68.8666 499.114 81.3407 499.5 94.0152L499.501 94.027L499.502 94.0387C499.991 100.337 499.991 106.663 499.502 112.961L499.477 113.283L499.759 113.438C535.722 133.238 565.348 162.811 585.21 198.74C605.072 234.669 614.36 275.486 612.001 316.471L612 316.486V316.5V471ZM362.002 93.9514L362.994 94.079C363.255 92.4446 363.517 90.8798 363.779 89.3823C365.38 82.6792 368.961 76.5804 374.091 71.9035C374.784 72.5886 375.536 73.3168 376.351 74.0895C380.493 78.0184 386.259 83.1148 393.949 89.5943C394.27 90.0636 394.592 90.5071 394.915 90.9208C396.488 92.939 398.172 94.3845 399.968 94.499L401.503 94.5967L400.319 93.6151C398.341 91.9739 396.468 90.409 394.697 88.9176C393.491 87.1408 392.275 84.9699 391.049 82.6062C390.062 80.7025 389.069 78.6719 388.071 76.6336C387.626 75.7225 387.179 74.8099 386.732 73.9064C387.524 74.2751 388.346 74.6703 389.193 75.0897C396.539 78.7241 405.782 84.1329 415.109 89.7578C418.498 91.8019 421.899 93.8748 425.221 95.9003C431.033 99.4429 436.607 102.84 441.464 105.684C445.282 107.92 448.669 109.819 451.39 111.183C452.751 111.865 453.952 112.417 454.963 112.81C455.963 113.199 456.815 113.449 457.462 113.499L457.5 113.501L457.538 113.499C458.234 113.445 458.792 113.145 459.031 112.524C459.243 111.972 459.148 111.288 458.92 110.583C458.457 109.148 457.3 107.201 455.724 104.964C452.555 100.471 447.555 94.6212 442.505 88.9957C438.973 85.061 435.409 81.2269 432.417 78.0311C430.525 75.1247 428.202 72.4862 425.499 70.2158C425.278 70.0301 425.102 69.8888 424.972 69.7952C424.91 69.7502 424.843 69.705 424.78 69.6714C424.774 69.6678 424.766 69.6637 424.757 69.6593C424.727 69.6444 424.684 69.6258 424.634 69.6127L424.632 69.6122C424.6 69.6036 424.38 69.5443 424.177 69.7028C423.933 69.8938 423.983 70.1699 423.992 70.2147C424.008 70.2924 424.038 70.3532 424.053 70.3811C424.086 70.4454 424.131 70.5106 424.172 70.5663C424.259 70.6842 424.388 70.8409 424.549 71.0276C425.194 71.7767 426.485 73.1647 428.189 74.9835C428.605 75.4274 429.046 75.8976 429.509 76.3911C430.173 77.0988 430.882 77.8545 431.627 78.6499C434.485 83.0655 436.32 88.1132 436.936 93.4221C436.259 93.2959 435.362 93.0292 434.258 92.6268C432.805 92.0968 431.038 91.3482 429.025 90.429C424.999 88.5909 420.019 86.0835 414.649 83.3117C411.676 81.7771 408.583 80.1614 405.469 78.5346C397.676 74.4627 389.749 70.321 383.226 67.2066C382.685 66.2618 382.145 65.3707 381.606 64.5517C380.034 62.1642 378.401 60.2813 376.697 59.4981C375.825 59.0973 374.92 58.9777 374.005 59.2392C373.1 59.4979 372.242 60.1139 371.421 61.0801C371.152 61.3975 370.883 61.756 370.617 62.1572C370.26 62.0839 369.931 62.0335 369.632 62.0091C369.149 61.9696 368.698 61.9936 368.334 62.1379C367.937 62.2947 367.644 62.597 367.559 63.0435C367.483 63.4435 367.589 63.8895 367.784 64.345C367.973 64.7836 368.272 65.2943 368.685 65.8806C368.003 67.4978 367.328 69.434 366.658 71.7191C365.365 76.1222 364.079 81.8591 362.799 89.18C362.427 90.7419 362.16 92.3356 362.002 93.9514ZM373.382 71.1964C369.839 74.4353 367.016 78.3343 365.049 82.638C365.904 78.4385 366.761 74.9186 367.617 72.0007C368.209 69.9847 368.798 68.2641 369.384 66.81C369.699 67.2064 370.054 67.6306 370.451 68.0833C371.247 68.9915 372.22 70.0262 373.382 71.1964ZM377.039 73.3639C376.247 72.6124 375.515 71.9047 374.841 71.2392C374.942 71.1527 375.043 71.0669 375.145 70.9815C375.445 70.729 375.968 70.5727 376.792 70.5966C377.606 70.6201 378.638 70.8172 379.872 71.1809C381.416 71.6359 383.239 72.3404 385.289 73.2497C385.903 74.4775 386.517 75.734 387.133 76.9933C388.138 79.0477 389.147 81.1096 390.162 83.0665C390.839 84.3734 391.519 85.6328 392.202 86.8069C385.704 81.2869 380.723 76.8578 377.039 73.3639ZM389.637 74.1935C388.376 73.5698 387.168 72.9966 386.022 72.4821C385.372 71.1865 384.72 69.9221 384.068 68.7215C390.316 71.7458 397.701 75.6041 404.987 79.4107C408.105 81.0398 411.205 82.6595 414.19 84.2003C419.562 86.9729 424.56 89.4898 428.609 91.3387C430.634 92.263 432.427 93.0236 433.916 93.5663C435.391 94.104 436.611 94.4452 437.469 94.499L438.055 94.5357L437.998 93.9514C437.581 89.6786 436.398 85.5599 434.543 81.7759C436.829 84.2358 439.303 86.9253 441.761 89.6637C446.809 95.2873 451.775 101.099 454.906 105.541C456.48 107.772 457.556 109.612 457.969 110.89C458.179 111.541 458.182 111.945 458.098 112.165C458.042 112.31 457.915 112.459 457.5 112.498C457.006 112.453 456.281 112.25 455.326 111.878C454.355 111.501 453.184 110.964 451.838 110.289C449.146 108.94 445.782 107.053 441.969 104.821C437.119 101.981 431.56 98.5929 425.755 95.0543C422.43 93.0276 419.025 90.9518 415.625 88.9015C406.3 83.2771 397.024 77.8484 389.637 74.1935ZM380.771 65.1018C381.054 65.5316 381.337 65.981 381.62 66.4477C377.534 64.5374 374.065 63.0853 371.654 62.412C371.831 62.1623 372.008 61.9344 372.183 61.7274C372.922 60.8579 373.623 60.3885 374.28 60.2007C374.928 60.0156 375.586 60.0882 376.279 60.4067C377.705 61.0621 379.206 62.7265 380.771 65.1018ZM369.551 63.0058C369.705 63.0184 369.873 63.0396 370.054 63.0696C369.756 63.5897 369.459 64.1655 369.164 64.7993C368.96 64.477 368.808 64.1949 368.703 63.9506C368.538 63.5647 368.521 63.341 368.542 63.2303C368.554 63.1661 368.578 63.1166 368.701 63.0678C368.856 63.0065 369.127 62.9712 369.551 63.0058ZM371.203 67.424C370.655 66.799 370.2 66.2432 369.83 65.7524C370.249 64.8023 370.667 63.9862 371.082 63.2933C371.086 63.2943 371.089 63.2952 371.093 63.2961C373.557 63.9393 377.367 65.5416 381.978 67.7213C382.156 67.8049 382.334 67.8894 382.513 67.9747C383.203 69.194 383.893 70.4994 384.584 71.8537C382.948 71.16 381.461 70.6066 380.155 70.2217C378.881 69.8464 377.756 69.624 376.821 69.597C375.896 69.5703 375.077 69.7323 374.501 70.2158C374.377 70.3202 374.254 70.4253 374.131 70.5312C372.963 69.3565 371.992 68.3241 371.203 67.424ZM450.031 721.287C461.033 712.119 469.004 699.959 473.066 686.403L466.717 737.039L330.98 749.456L326.126 683.487C329.877 698.213 338.185 711.466 349.969 721.287C363.956 732.943 381.816 738.909 400 738.001C418.184 738.909 436.044 732.943 450.031 721.287Z" stroke="#575757"/>
</g>
</g>
<defs>
<clipPath id="clip0_383_175">
<rect width="800" height="800" fill="white"/>
</clipPath>
</defs>
</svg>
