<svg width="14" height="16" viewBox="0 0 14 16" fill="none" xmlns="http://www.w3.org/2000/svg">
<path d="M4.94118 12.8C4.48824 12.8 4.10049 12.6433 3.77794 12.33C3.45539 12.0167 3.29412 11.64 3.29412 11.2V1.6C3.29412 1.16 3.45539 0.783333 3.77794 0.47C4.10049 0.156667 4.48824 0 4.94118 0H12.3529C12.8059 0 13.1936 0.156667 13.5162 0.47C13.8387 0.783333 14 1.16 14 1.6V11.2C14 11.64 13.8387 12.0167 13.5162 12.33C13.1936 12.6433 12.8059 12.8 12.3529 12.8H4.94118ZM4.94118 11.2H12.3529V1.6H4.94118V11.2ZM1.64706 16C1.19412 16 0.806373 15.8433 0.483824 15.53C0.161275 15.2167 0 14.84 0 14.4V3.2H1.64706V14.4H10.7059V16H1.64706Z" fill="#636363"/>
</svg>
