<?xml version="1.0" encoding="UTF-8"?>
<svg id="Layer_1" xmlns="http://www.w3.org/2000/svg" version="1.1" viewBox="0 0 720 720">
  <!-- Generator: Adobe Illustrator 29.1.0, SVG Export Plug-In . SVG Version: 2.1.0 Build 142)  -->
  <defs>
    <style>
      .st0 {
        fill: #5d5fef;
      }
    </style>
  </defs>
  <path class="st0" d="M271.3,248.8l55.7-156.1c6-16.8,29.6-17.1,36-.4l59.3,154.8c8.5,22.3,26.4,39.7,48.9,47.8l156.1,55.7c16.8,6,17.1,29.6.4,36l-154.8,59.3c-22.3,8.5-39.7,26.4-47.8,48.9l-55.7,156.1c-6,16.8-29.6,17.1-36,.4l-59.3-154.8c-8.5-22.3-26.4-39.7-48.9-47.8l-156.1-55.7c-16.8-6-17.1-29.6-.4-36l154.8-59.3c22.3-8.5,39.7-26.4,47.8-48.9h0Z"/>
  <path class="st0" d="M699,93v173.2c0,28.7-23.3,52-52,52h-10.5c-28.7,0-52-23.3-52-52V125.1h-130.6c-28.7,0-52-23.3-52-52h0c0-28.7,23.3-52,52-52h173.2c39.8,0,72,32.2,72,72h0Z"/>
</svg>