<svg width="11" height="11" viewBox="0 0 11 11" fill="none" xmlns="http://www.w3.org/2000/svg">
<path d="M5.5 11C3.96458 11 2.66406 10.4672 1.59844 9.40156C0.532812 8.33594 0 7.03542 0 5.5C0 3.96458 0.532812 2.66406 1.59844 1.59844C2.66406 0.532812 3.96458 0 5.5 0C6.29062 0 7.04688 0.163281 7.76875 0.489844C8.49063 0.816406 9.10938 1.28333 9.625 1.89062V0H11V4.8125H6.1875V3.4375H9.075C8.70833 2.79583 8.20703 2.29167 7.57109 1.925C6.93516 1.55833 6.24479 1.375 5.5 1.375C4.35417 1.375 3.38021 1.77604 2.57812 2.57812C1.77604 3.38021 1.375 4.35417 1.375 5.5C1.375 6.64583 1.77604 7.61979 2.57812 8.42188C3.38021 9.22396 4.35417 9.625 5.5 9.625C6.38229 9.625 7.17865 9.37292 7.88906 8.86875C8.59948 8.36458 9.09792 7.7 9.38438 6.875H10.8281C10.5073 8.08958 9.85417 9.08073 8.86875 9.84844C7.88333 10.6161 6.76042 11 5.5 11Z" fill="#B5B5B5"/>
</svg>
